# Blender v2.62 (sub 0) OBJ File: ''
# www.blender.org
o Mesh_cube
v 25.000000 25.000004 -24.999996
v 25.000000 -24.999996 -25.000004
v -25.000000 -24.999996 -25.000004
v -25.000000 25.000004 -24.999996
v -25.000000 -25.000004 24.999996
v -25.000000 24.999996 25.000004
v 25.000000 -25.000004 24.999996
v 24.999975 24.999996 25.000027
vt 0.748573 0.750412
vt 0.749279 0.501284
vt 0.999110 0.501077
vt 0.999455 0.750380
vt 0.250471 0.500702
vt 0.249682 0.749677
vt 0.001085 0.750380
vt 0.001517 0.499994
vt 0.499422 0.500239
vt 0.500149 0.750166
vt 0.748355 0.998230
vt 0.500193 0.998728
vt 0.498993 0.250415
vt 0.748953 0.250920
vn 0.000000 0.000000 -1.000000
vn -1.000000 -0.000000 0.000000
vn 0.000000 -0.000001 1.000000
vn -0.000000 -0.000000 1.000000
vn 1.000000 0.000000 0.000000
vn -0.000000 1.000000 0.000000
vn 0.000000 -1.000000 -0.000000
s off
f 1/1/1 2/2/1 3/3/1
f 1/1/1 3/3/1 4/4/1
f 5/5/2 6/6/2 4/7/2
f 5/5/2 4/7/2 3/8/2
f 7/9/3 8/10/3 5/5/3
f 8/10/4 6/6/4 5/5/4
f 2/2/5 1/1/5 7/9/5
f 1/1/5 8/10/5 7/9/5
f 1/1/6 4/11/6 8/10/6
f 4/11/6 6/12/6 8/10/6
f 2/2/7 7/9/7 5/13/7
f 2/2/7 5/13/7 3/14/7
